HIERARCHY
ROOT mixamorig:Hips
{
	OFFSET -0.000008 104.274872 1.554316
	CHANNELS 6 Xposition Yposition Zposition Xrotation Yrotation Zrotation
	JOINT mixamorig:Spine
	{
		OFFSET -0.000005 10.181595 0.131519
		CHANNELS 6 Xposition Yposition Zposition Xrotation Yrotation Zrotation
		JOINT mixamorig:Spine1
		{
			OFFSET -0.000000 9.893959 -1.470707
			CHANNELS 6 Xposition Yposition Zposition Xrotation Yrotation Zrotation
			JOINT mixamorig:Spine2
			{
				OFFSET -0.000000 9.220757 -1.370641
				CHANNELS 6 Xposition Yposition Zposition Xrotation Yrotation Zrotation
				JOINT mixamorig:Neck
				{
					OFFSET 0.000001 16.740417 -2.049036
					CHANNELS 6 Xposition Yposition Zposition Xrotation Yrotation Zrotation
					JOINT mixamorig:Head
					{
						OFFSET 0.000000 9.617874 1.685006
						CHANNELS 6 Xposition Yposition Zposition Xrotation Yrotation Zrotation
						JOINT mixamorig:HeadTop_End
						{
							OFFSET 0.000002 22.037354 7.501101
							CHANNELS 6 Xposition Yposition Zposition Xrotation Yrotation Zrotation
							End Site
							{
								OFFSET 0.000168 2310.654297 -282.823242
							}
						}
					}
				}
				JOINT mixamorig:RightShoulder
				{
					OFFSET -4.569970 11.014908 -2.160885
					CHANNELS 6 Xposition Yposition Zposition Xrotation Yrotation Zrotation
					JOINT mixamorig:RightArm
					{
						OFFSET -10.592851 -0.524811 -2.232101
						CHANNELS 6 Xposition Yposition Zposition Xrotation Yrotation Zrotation
						JOINT mixamorig:RightForeArm
						{
							OFFSET -27.841511 0.000031 -0.000004
							CHANNELS 6 Xposition Yposition Zposition Xrotation Yrotation Zrotation
							JOINT mixamorig:RightHand
							{
								OFFSET -28.328831 -0.000015 0.000015
								CHANNELS 6 Xposition Yposition Zposition Xrotation Yrotation Zrotation
								JOINT mixamorig:RightHandThumb1
								{
									OFFSET -2.464806 -1.573990 2.681852
									CHANNELS 6 Xposition Yposition Zposition Xrotation Yrotation Zrotation
									JOINT mixamorig:RightHandThumb2
									{
										OFFSET -3.215179 -1.872803 1.924282
										CHANNELS 6 Xposition Yposition Zposition Xrotation Yrotation Zrotation
										JOINT mixamorig:RightHandThumb3
										{
											OFFSET -2.654831 -1.527969 1.512609
											CHANNELS 6 Xposition Yposition Zposition Xrotation Yrotation Zrotation
											JOINT mixamorig:RightHandThumb4
											{
												OFFSET -2.018814 -1.152008 1.108052
												CHANNELS 6 Xposition Yposition Zposition Xrotation Yrotation Zrotation
												End Site
												{
													OFFSET -188.809540 -114.533607 132.431396
												}
											}
										}
									}
								}
								JOINT mixamorig:RightHandIndex1
								{
									OFFSET -9.108284 -0.517868 2.259835
									CHANNELS 6 Xposition Yposition Zposition Xrotation Yrotation Zrotation
									JOINT mixamorig:RightHandIndex2
									{
										OFFSET -3.699989 0.000000 0.001215
										CHANNELS 6 Xposition Yposition Zposition Xrotation Yrotation Zrotation
										JOINT mixamorig:RightHandIndex3
										{
											OFFSET -2.850006 0.000031 -0.000522
											CHANNELS 6 Xposition Yposition Zposition Xrotation Yrotation Zrotation
											JOINT mixamorig:RightHandIndex4
											{
												OFFSET -2.772186 -0.000015 -0.000020
												CHANNELS 6 Xposition Yposition Zposition Xrotation Yrotation Zrotation
												End Site
												{
													OFFSET -277.218445 0.000000 -0.050231
												}
											}
										}
									}
								}
								JOINT mixamorig:RightHandMiddle1
								{
									OFFSET -9.532516 -0.000031 -0.000023
									CHANNELS 6 Xposition Yposition Zposition Xrotation Yrotation Zrotation
									JOINT mixamorig:RightHandMiddle2
									{
										OFFSET -3.700005 -0.000015 0.003713
										CHANNELS 6 Xposition Yposition Zposition Xrotation Yrotation Zrotation
										JOINT mixamorig:RightHandMiddle3
										{
											OFFSET -2.949974 0.000015 -0.002054
											CHANNELS 6 Xposition Yposition Zposition Xrotation Yrotation Zrotation
											JOINT mixamorig:RightHandMiddle4
											{
												OFFSET -2.946640 0.000000 -0.000156
												CHANNELS 6 Xposition Yposition Zposition Xrotation Yrotation Zrotation
												End Site
												{
													OFFSET -294.664337 0.000000 -0.113670
												}
											}
										}
									}
								}
								JOINT mixamorig:RightHandRing1
								{
									OFFSET -9.103600 -0.043076 -1.865134
									CHANNELS 6 Xposition Yposition Zposition Xrotation Yrotation Zrotation
									JOINT mixamorig:RightHandRing2
									{
										OFFSET -3.379288 0.000000 -0.001055
										CHANNELS 6 Xposition Yposition Zposition Xrotation Yrotation Zrotation
										JOINT mixamorig:RightHandRing3
										{
											OFFSET -2.889687 -0.000015 0.000379
											CHANNELS 6 Xposition Yposition Zposition Xrotation Yrotation Zrotation
											JOINT mixamorig:RightHandRing4
											{
												OFFSET -2.638809 -0.000015 0.000941
												CHANNELS 6 Xposition Yposition Zposition Xrotation Yrotation Zrotation
												End Site
												{
													OFFSET -263.880371 0.000000 0.516020
												}
											}
										}
									}
								}
								JOINT mixamorig:RightHandPinky1
								{
									OFFSET -8.076683 -0.486710 -3.806280
									CHANNELS 6 Xposition Yposition Zposition Xrotation Yrotation Zrotation
									JOINT mixamorig:RightHandPinky2
									{
										OFFSET -3.600014 -0.000015 -0.003747
										CHANNELS 6 Xposition Yposition Zposition Xrotation Yrotation Zrotation
										JOINT mixamorig:RightHandPinky3
										{
											OFFSET -2.099983 0.000000 -0.005739
											CHANNELS 6 Xposition Yposition Zposition Xrotation Yrotation Zrotation
											JOINT mixamorig:RightHandPinky4
											{
												OFFSET -2.115768 -0.000031 -0.003680
												CHANNELS 6 Xposition Yposition Zposition Xrotation Yrotation Zrotation
												End Site
												{
													OFFSET -211.577087 0.000000 -0.350686
												}
											}
										}
									}
								}
							}
						}
					}
				}
				JOINT mixamorig:LeftShoulder
				{
					OFFSET 4.570447 11.014725 -2.160855
					CHANNELS 6 Xposition Yposition Zposition Xrotation Yrotation Zrotation
					JOINT mixamorig:LeftArm
					{
						OFFSET 10.592371 -0.524597 -2.232119
						CHANNELS 6 Xposition Yposition Zposition Xrotation Yrotation Zrotation
						JOINT mixamorig:LeftForeArm
						{
							OFFSET 27.841532 -0.000031 0.000026
							CHANNELS 6 Xposition Yposition Zposition Xrotation Yrotation Zrotation
							JOINT mixamorig:LeftHand
							{
								OFFSET 28.328846 -0.000061 0.000022
								CHANNELS 6 Xposition Yposition Zposition Xrotation Yrotation Zrotation
								JOINT mixamorig:LeftHandThumb1
								{
									OFFSET 2.466141 -1.576172 2.681732
									CHANNELS 6 Xposition Yposition Zposition Xrotation Yrotation Zrotation
									JOINT mixamorig:LeftHandThumb2
									{
										OFFSET 3.217812 -1.872070 1.916482
										CHANNELS 6 Xposition Yposition Zposition Xrotation Yrotation Zrotation
										JOINT mixamorig:LeftHandThumb3
										{
											OFFSET 2.656029 -1.528778 1.514513
											CHANNELS 6 Xposition Yposition Zposition Xrotation Yrotation Zrotation
											JOINT mixamorig:LeftHandThumb4
											{
												OFFSET 2.020889 -1.154053 1.115139
												CHANNELS 6 Xposition Yposition Zposition Xrotation Yrotation Zrotation
												End Site
												{
													OFFSET 190.885437 -115.081749 130.048782
												}
											}
										}
									}
								}
								JOINT mixamorig:LeftHandIndex1
								{
									OFFSET 9.109314 -0.518021 2.259871
									CHANNELS 6 Xposition Yposition Zposition Xrotation Yrotation Zrotation
									JOINT mixamorig:LeftHandIndex2
									{
										OFFSET 3.699989 0.000000 -0.000322
										CHANNELS 6 Xposition Yposition Zposition Xrotation Yrotation Zrotation
										JOINT mixamorig:LeftHandIndex3
										{
											OFFSET 2.850006 0.000000 0.000352
											CHANNELS 6 Xposition Yposition Zposition Xrotation Yrotation Zrotation
											JOINT mixamorig:LeftHandIndex4
											{
												OFFSET 2.774864 -0.000031 -0.000027
												CHANNELS 6 Xposition Yposition Zposition Xrotation Yrotation Zrotation
												End Site
												{
													OFFSET 277.486267 0.000000 -0.009857
												}
											}
										}
									}
								}
								JOINT mixamorig:LeftHandMiddle1
								{
									OFFSET 9.533394 0.000061 0.000044
									CHANNELS 6 Xposition Yposition Zposition Xrotation Yrotation Zrotation
									JOINT mixamorig:LeftHandMiddle2
									{
										OFFSET 3.699989 -0.000015 -0.000231
										CHANNELS 6 Xposition Yposition Zposition Xrotation Yrotation Zrotation
										JOINT mixamorig:LeftHandMiddle3
										{
											OFFSET 2.949997 -0.000015 -0.000059
											CHANNELS 6 Xposition Yposition Zposition Xrotation Yrotation Zrotation
											JOINT mixamorig:LeftHandMiddle4
											{
												OFFSET 2.952896 0.000031 0.000063
												CHANNELS 6 Xposition Yposition Zposition Xrotation Yrotation Zrotation
												End Site
												{
													OFFSET 295.289337 0.000000 0.022810
												}
											}
										}
									}
								}
								JOINT mixamorig:LeftHandRing1
								{
									OFFSET 9.104523 -0.042999 -1.865074
									CHANNELS 6 Xposition Yposition Zposition Xrotation Yrotation Zrotation
									JOINT mixamorig:LeftHandRing2
									{
										OFFSET 3.150009 -0.000031 0.000043
										CHANNELS 6 Xposition Yposition Zposition Xrotation Yrotation Zrotation
										JOINT mixamorig:LeftHandRing3
										{
											OFFSET 2.949982 -0.000015 0.000040
											CHANNELS 6 Xposition Yposition Zposition Xrotation Yrotation Zrotation
											JOINT mixamorig:LeftHandRing4
											{
												OFFSET 2.644348 0.000000 0.000057
												CHANNELS 6 Xposition Yposition Zposition Xrotation Yrotation Zrotation
												End Site
												{
													OFFSET 264.434631 0.000000 0.012105
												}
											}
										}
									}
								}
								JOINT mixamorig:LeftHandPinky1
								{
									OFFSET 8.077789 -0.486847 -3.806259
									CHANNELS 6 Xposition Yposition Zposition Xrotation Yrotation Zrotation
									JOINT mixamorig:LeftHandPinky2
									{
										OFFSET 3.599953 0.000031 0.014727
										CHANNELS 6 Xposition Yposition Zposition Xrotation Yrotation Zrotation
										JOINT mixamorig:LeftHandPinky3
										{
											OFFSET 2.100021 0.000015 0.007705
											CHANNELS 6 Xposition Yposition Zposition Xrotation Yrotation Zrotation
											JOINT mixamorig:LeftHandPinky4
											{
												OFFSET 2.125504 0.000031 0.007517
												CHANNELS 6 Xposition Yposition Zposition Xrotation Yrotation Zrotation
												End Site
												{
													OFFSET 212.550781 0.000000 0.625752
												}
											}
										}
									}
								}
							}
						}
					}
				}
			}
		}
	}
	JOINT mixamorig:RightUpLeg
	{
		OFFSET -8.207787 -6.751648 -1.599560
		CHANNELS 6 Xposition Yposition Zposition Xrotation Yrotation Zrotation
		JOINT mixamorig:RightLeg
		{
			OFFSET -0.000002 -44.370117 0.345942
			CHANNELS 6 Xposition Yposition Zposition Xrotation Yrotation Zrotation
			JOINT mixamorig:RightFoot
			{
				OFFSET 0.000003 -44.423679 -3.043532
				CHANNELS 6 Xposition Yposition Zposition Xrotation Yrotation Zrotation
				JOINT mixamorig:RightToeBase
				{
					OFFSET -0.000002 -8.728671 10.710558
					CHANNELS 6 Xposition Yposition Zposition Xrotation Yrotation Zrotation
					JOINT mixamorig:RightToe_End
					{
						OFFSET -0.000001 -0.000679 9.278119
						CHANNELS 6 Xposition Yposition Zposition Xrotation Yrotation Zrotation
						End Site
						{
							OFFSET 0.000000 -0.067690 927.812134
						}
					}
				}
			}
		}
	}
	JOINT mixamorig:LeftUpLeg
	{
		OFFSET 8.207793 -6.751686 -1.599556
		CHANNELS 6 Xposition Yposition Zposition Xrotation Yrotation Zrotation
		JOINT mixamorig:LeftLeg
		{
			OFFSET -0.000004 -44.370014 0.346954
			CHANNELS 6 Xposition Yposition Zposition Xrotation Yrotation Zrotation
			JOINT mixamorig:LeftFoot
			{
				OFFSET -0.000001 -44.423672 -3.044401
				CHANNELS 6 Xposition Yposition Zposition Xrotation Yrotation Zrotation
				JOINT mixamorig:LeftToeBase
				{
					OFFSET -0.000002 -8.728669 10.710558
					CHANNELS 6 Xposition Yposition Zposition Xrotation Yrotation Zrotation
					JOINT mixamorig:LeftToe_End
					{
						OFFSET -0.000003 -0.000679 9.278133
						CHANNELS 6 Xposition Yposition Zposition Xrotation Yrotation Zrotation
						End Site
						{
							OFFSET 0.000000 -0.068021 927.813477
						}
					}
				}
			}
		}
	}
}
MOTION
Frames: 3
Frame Time: 0.033333
0.000006 104.270477 1.554256 0.000010 0.000003 -0.000113 -0.000005 10.181587 0.131522 0.000001 -0.000003 0.000084 -0.000000 9.893967 -1.470711 0.000001 0.000000 -0.000000 -0.000000 9.220802 -1.370642 0.000000 -0.000000 -0.000000 0.000001 16.740433 -2.049030 0.000000 -0.000000 -0.000000 0.000000 9.617859 1.685014 0.000000 0.000000 0.000000 0.000002 22.037384 7.501101 0.000000 -0.000000 0.000000 -4.569968 11.014880 -2.160881 0.000008 0.000001 -0.000038 -10.592858 -0.524802 -2.231832 76.530016 41.269827 -33.085447 -27.841534 0.000005 0.000554 -55.872621 105.533861 69.813624 -28.328819 0.000013 0.000033 -0.000323 -0.000042 0.000006 -2.464432 -1.573800 2.682359 -44.884472 -165.952683 -1.613591 -3.215283 -1.872637 1.924672 157.271909 30.431327 -4.466539 -2.654955 -1.527899 1.513095 146.374164 26.372411 -44.473196 -2.018830 -1.152013 1.108067 -0.000003 0.000004 0.000007 -9.108376 -0.517564 2.260116 93.799090 18.180398 -19.455323 -3.700076 0.000287 0.001486 88.451325 16.844051 -16.377151 -2.850097 0.000348 -0.000298 87.485543 13.789343 -13.201520 -2.772162 -0.000002 -0.000020 0.000002 -0.000001 -0.000001 -9.532589 0.000275 0.000221 90.931155 15.291508 -15.682596 -3.700080 0.000321 0.003956 89.196841 13.438459 -13.158291 -2.950057 0.000329 -0.001829 89.503496 12.482960 -12.368977 -2.946631 -0.000000 -0.000154 -0.000001 0.000000 -0.000000 -9.103691 -0.042755 -1.864879 90.104033 17.332850 -17.319060 -3.379344 0.000295 -0.000810 90.898002 11.341454 -11.537399 -2.889758 0.000341 0.000630 93.625986 8.419742 -9.017468 -2.638805 -0.000001 0.000939 0.000001 -0.000002 0.000001 -8.076733 -0.486391 -3.806035 81.923215 17.710219 -15.272021 -3.600049 0.000273 -0.003538 85.661350 9.584222 -8.553145 -2.100029 0.000310 -0.005500 87.302105 6.166705 -5.672570 -2.115777 -0.000055 -0.003681 0.000006 -0.000000 -0.000003 4.570446 11.014691 -2.160851 -0.000018 0.000010 -0.000021 10.592470 -0.524488 -2.232399 70.728207 -38.163562 27.587853 27.841837 0.000003 -0.000184 -69.113345 -102.434826 -81.202958 28.328840 -0.000024 0.000020 0.000022 -0.000089 -0.000000 2.466226 -1.576079 2.681872 -149.901588 25.057865 70.660745 3.217751 -1.872049 1.916577 -11.616326 158.843959 -60.616611 2.656096 -1.528716 1.514543 147.200330 -22.359861 75.569466 2.020887 -1.154065 1.115148 0.000002 0.000003 0.000004 9.109409 -0.517877 2.259769 98.817094 -28.824153 33.374036 3.700097 0.000166 -0.000417 106.948318 -22.019087 29.459794 2.850077 0.000250 0.000241 112.439872 -14.230604 21.138343 2.774873 -0.000046 -0.000027 0.000000 0.000000 -0.000000 9.533476 0.000227 -0.000075 102.608416 -19.546331 24.260031 3.700070 0.000256 -0.000355 113.793294 -10.095298 15.426395 2.950068 0.000276 -0.000167 121.139443 -9.401003 16.589280 2.952856 -0.000045 0.000061 0.000000 -0.000001 0.000001 9.104582 -0.042805 -1.865207 102.777565 -16.639980 20.756376 3.150054 0.000300 -0.000076 119.087476 -6.970821 11.830181 2.950023 0.000314 -0.000051 130.284656 -4.155765 8.959307 2.644331 0.000014 0.000061 0.000002 0.000002 0.000001 8.077828 -0.486639 -3.806384 102.144386 -12.444009 16.069656 3.599993 0.000357 0.014601 124.247930 -2.204948 5.006597 2.100002 0.000385 0.007638 142.156659 -0.632941 3.061211 2.125497 0.000001 0.007515 -0.000001 0.000001 -0.000000 -8.207786 -6.751667 -1.599560 -0.077001 -0.000003 0.000080 -0.000002 -44.370110 0.345938 0.153719 -0.000000 -0.000000 0.000000 -44.423679 -3.043532 -0.076700 0.000000 -0.000002 -0.000006 -8.728667 10.710559 -0.000009 -0.000000 -0.000000 -0.000001 -0.000679 9.278123 0.000000 -0.000000 -0.000000 8.207792 -6.751710 -1.599556 -0.074518 -0.000003 0.000081 -0.000002 -44.370014 0.346960 0.148822 0.000002 0.000000 -0.000001 -44.423664 -3.044403 -0.074314 0.000000 -0.000002 -0.000004 -8.728671 10.710558 0.000007 -0.000000 -0.000000 0.000000 -0.000680 9.278137 -0.000000 0.000000 -0.000001 
0.000006 104.270477 1.554256 0.000010 0.000003 -0.000113 -0.000005 10.181587 0.131522 0.000001 -0.000003 0.000084 -0.000000 9.893967 -1.470711 0.000001 0.000000 -0.000000 -0.000000 9.220802 -1.370642 0.000000 -0.000000 -0.000000 0.000001 16.740433 -2.049030 0.000000 -0.000000 -0.000000 0.000000 9.617859 1.685014 0.000000 0.000000 0.000000 0.000002 22.037384 7.501101 0.000000 -0.000000 0.000000 -4.569968 11.014880 -2.160881 0.000008 0.000001 -0.000038 -10.592856 -0.524797 -2.231834 77.251127 40.885837 -33.170708 -27.841536 -0.000003 0.000566 -51.160350 104.130428 63.111467 -28.328819 0.000021 0.000032 -0.000321 -0.000044 0.000009 -2.464431 -1.573728 2.682293 -53.202724 -170.422085 -25.395325 -3.215270 -1.872563 1.924647 150.321071 31.891751 10.172857 -2.654974 -1.527883 1.513080 143.633059 27.730698 -35.035428 -2.018835 -1.152001 1.108047 -0.000003 0.000000 0.000005 -9.108390 -0.517550 2.260094 92.695304 15.985662 -16.793938 -3.700071 0.000325 0.001496 89.946263 14.795650 -14.758027 -2.850090 0.000355 -0.000289 88.806741 12.288916 -12.036567 -2.772181 -0.000001 -0.000021 -0.000003 0.000000 0.000001 -9.532587 0.000269 0.000215 90.022255 14.905445 -15.051999 -3.700068 0.000329 0.003957 91.140467 12.975215 -13.136330 -2.950069 0.000337 -0.001803 93.253105 11.974093 -12.660934 -2.946620 0.000004 -0.000155 0.000002 0.000001 0.000001 -9.103694 -0.042767 -1.864882 88.597867 16.972832 -16.524685 -3.379357 0.000323 -0.000807 91.893850 10.673645 -11.048381 -2.889742 0.000350 0.000650 97.477577 7.717208 -8.844769 -2.638795 -0.000017 0.000940 -0.000000 0.000001 0.000001 -8.076748 -0.486408 -3.806053 79.333924 18.958524 -15.637418 -3.600051 0.000279 -0.003536 84.009578 9.141535 -7.912502 -2.100006 0.000327 -0.005508 88.430862 4.905305 -4.561718 -2.115765 -0.000043 -0.003680 0.000001 0.000000 -0.000005 4.570446 11.014691 -2.160851 -0.000018 0.000010 -0.000021 10.592451 -0.524483 -2.232401 69.854906 -31.105979 21.997613 27.841827 0.000014 -0.000185 -65.947129 -101.362391 -76.764564 28.328838 -0.000029 0.000024 0.000021 -0.000089 0.000000 2.466248 -1.576021 2.681869 -135.054615 13.876897 50.953020 3.217684 -1.872048 1.916574 -17.412109 158.132745 -49.834853 2.656098 -1.528698 1.514522 146.875910 -22.984010 72.212264 2.020887 -1.154079 1.115148 0.000002 0.000000 0.000001 9.109442 -0.517861 2.259790 109.707079 -28.056479 39.060079 3.700104 0.000221 -0.000418 121.898045 -16.172208 28.725307 2.850090 0.000322 0.000245 128.620016 -8.798672 18.169958 2.774879 -0.000047 -0.000029 0.000002 -0.000002 0.000000 9.533503 0.000267 -0.000048 114.953860 -18.207635 28.199373 3.700050 0.000300 -0.000331 129.120095 -5.947114 12.458648 2.950065 0.000331 -0.000107 141.546026 -5.146358 14.692874 2.952860 -0.000030 0.000067 0.000001 -0.000002 -0.000001 9.104619 -0.042778 -1.865184 115.259401 -15.044760 23.537689 3.150070 0.000323 -0.000031 134.866293 -6.146392 14.726692 2.950014 0.000317 0.000010 147.614540 -4.541559 15.557313 2.644323 0.000030 0.000058 -0.000001 -0.000002 0.000001 8.077862 -0.486608 -3.806357 113.706681 -13.596715 21.562631 3.600011 0.000350 0.014650 133.942400 -6.541020 16.447661 2.100054 0.000367 0.007674 148.744008 -4.847504 18.870126 2.125507 -0.000015 0.007514 0.000000 0.000000 -0.000001 -8.207786 -6.751667 -1.599560 -0.077001 -0.000003 0.000080 -0.000002 -44.370110 0.345938 0.153719 -0.000000 -0.000000 0.000000 -44.423679 -3.043532 -0.076700 0.000000 -0.000002 -0.000006 -8.728667 10.710559 -0.000009 -0.000000 -0.000000 -0.000001 -0.000679 9.278123 0.000000 -0.000000 -0.000000 8.207792 -6.751710 -1.599556 -0.074518 -0.000003 0.000081 -0.000002 -44.370014 0.346960 0.148822 0.000002 0.000000 -0.000001 -44.423664 -3.044403 -0.074314 0.000000 -0.000002 -0.000004 -8.728671 10.710558 0.000007 -0.000000 -0.000000 0.000000 -0.000680 9.278137 -0.000000 0.000000 -0.000001 
0.000006 104.270477 1.554256 0.000010 0.000003 -0.000113 -0.000005 10.181587 0.131522 0.000001 -0.000003 0.000084 -0.000000 9.893967 -1.470711 0.000001 0.000000 -0.000000 -0.000000 9.220802 -1.370642 0.000000 -0.000000 -0.000000 0.000001 16.740433 -2.049030 0.000000 -0.000000 -0.000000 0.000000 9.617859 1.685014 0.000000 0.000000 0.000000 0.000002 22.037384 7.501101 0.000000 -0.000000 0.000000 -4.569968 11.014880 -2.160881 0.000008 0.000001 -0.000038 -10.592847 -0.524817 -2.231819 76.993560 44.684337 -36.202929 -27.841513 0.000023 0.000537 -50.015088 103.086870 60.855107 -28.328835 0.000017 0.000026 -0.000321 -0.000044 0.000006 -2.464424 -1.573693 2.682274 -53.607532 -171.267622 -26.873856 -3.215256 -1.872535 1.924634 150.281551 32.103784 11.838145 -2.654956 -1.527863 1.513064 144.830309 27.556998 -34.490854 -2.018823 -1.152000 1.108067 -0.000001 0.000001 0.000004 -9.108368 -0.517538 2.260096 92.906917 15.962512 -16.830959 -3.700082 0.000298 0.001493 90.355370 15.126666 -15.195511 -2.850099 0.000352 -0.000281 89.187340 12.609033 -12.431920 -2.772166 -0.000016 -0.000016 0.000001 -0.000001 0.000001 -9.532589 0.000273 0.000222 90.192095 15.089262 -15.280841 -3.700086 0.000324 0.003943 90.979001 13.671950 -13.807356 -2.950061 0.000333 -0.001824 93.117758 12.572112 -13.261855 -2.946623 -0.000015 -0.000154 0.000001 -0.000001 -0.000001 -9.103693 -0.042760 -1.864880 88.780356 17.453754 -17.047713 -3.379351 0.000300 -0.000801 92.256287 11.320231 -11.790288 -2.889764 0.000348 0.000649 98.302111 8.127965 -9.448268 -2.638804 -0.000017 0.000942 0.000000 0.000001 0.000001 -8.076747 -0.486398 -3.806047 79.227455 19.611454 -16.152672 -3.600039 0.000271 -0.003547 83.531048 9.732453 -8.372430 -2.100019 0.000321 -0.005497 88.061076 5.239354 -4.854336 -2.115766 -0.000068 -0.003681 0.000002 -0.000000 -0.000001 4.570446 11.014691 -2.160851 -0.000018 0.000010 -0.000021 10.592502 -0.524503 -2.232406 68.444609 -49.813936 35.054880 27.841825 -0.000013 -0.000158 -57.129205 -98.388199 -64.469377 28.328840 -0.000026 0.000017 0.000017 -0.000086 -0.000004 2.466220 -1.576071 2.681865 -139.116077 25.893640 62.609592 3.217816 -1.872030 1.916543 10.014380 151.776174 -84.167410 2.656104 -1.528703 1.514550 158.238599 -15.314276 76.980330 2.020895 -1.154069 1.115147 0.000001 0.000006 0.000004 9.109412 -0.517849 2.259785 113.846392 -27.566879 41.257809 3.700109 0.000204 -0.000401 122.235483 -19.485302 34.610676 2.850100 0.000276 0.000275 128.827203 -12.831631 26.428859 2.774884 -0.000015 -0.000027 0.000003 0.000001 -0.000002 9.533497 0.000267 -0.000057 121.550948 -17.665323 31.030598 3.700069 0.000308 -0.000320 130.885016 -7.219890 15.716492 2.950103 0.000289 -0.000114 140.184387 -8.160573 22.294559 2.952872 -0.000017 0.000061 0.000000 0.000002 0.000000 9.104614 -0.042758 -1.865183 121.619550 -15.340627 27.111259 3.150056 0.000326 -0.000027 133.041307 -5.769290 13.237584 2.950043 0.000328 -0.000001 145.924205 -5.577392 18.068565 2.644329 0.000030 0.000057 0.000000 -0.000002 0.000002 8.077864 -0.486615 -3.806376 119.564907 -14.124666 25.002015 3.600004 0.000375 0.014634 138.634508 -4.469013 13.047143 2.100053 0.000362 0.007683 153.503707 -4.270163 19.977014 2.125500 -0.000003 0.007516 -0.000001 0.000000 0.000004 -8.207786 -6.751667 -1.599560 -0.077001 -0.000003 0.000080 -0.000002 -44.370110 0.345938 0.153719 -0.000000 -0.000000 0.000000 -44.423679 -3.043532 -0.076700 0.000000 -0.000002 -0.000006 -8.728667 10.710559 -0.000009 -0.000000 -0.000000 -0.000001 -0.000679 9.278123 0.000000 -0.000000 -0.000000 8.207792 -6.751710 -1.599556 -0.074518 -0.000003 0.000081 -0.000002 -44.370014 0.346960 0.148822 0.000002 0.000000 -0.000001 -44.423664 -3.044403 -0.074314 0.000000 -0.000002 -0.000004 -8.728671 10.710558 0.000007 -0.000000 -0.000000 0.000000 -0.000680 9.278137 -0.000000 0.000000 -0.000001 
